<?xml version="1.0" encoding="UTF-8" standalone="yes"?>
<!DOCTYPE svg PUBLIC "-//W3C//DTD SVG 1.0//EN" "http://www.w3.org/TR/2001/REC-SVG-20010904/DTD/svg10.dtd">
<svg height="800.000000" width="1210.000000" xmlns="http://www.w3.org/2000/svg" xmlns:svg="http://www.w3.org/2000/svg" xmlns:xlink="http://www.w3.org/1999/xlink"><g fill-rule="evenodd"><path d="M 594.595,233.423 L 743.865,233.423 L 743.865,451.923 L 594.595,451.923 L 594.595,233.423 z " style="fill: none; stroke: black; stroke-width: 1px;"/></g>

<g fill-rule="evenodd"><path d="M 445.325,233.422 L 594.595,233.422 L 594.595,451.922 L 445.325,451.922 L 445.325,233.422 z " style="fill: none; stroke: black; stroke-width: 1px;"/></g>

<g fill-rule="evenodd"><path d="M 743.865,233.423 L 893.135,233.423 L 893.135,451.923 L 743.865,451.923 L 743.865,233.423 z " style="fill: none; stroke: black; stroke-width: 1px;"/></g>

<g fill-rule="evenodd"><path d="M 559.98,233.422 L 559.98,84.1525 L 778.48,84.1525 L 778.48,233.423 L 559.98,233.422 z " style="fill: none; stroke: black; stroke-width: 1px;"/></g>

<g fill-rule="evenodd"><path d="M 559.98,601.192 L 559.98,451.923 L 778.48,451.923 L 778.48,601.193 L 559.98,601.192 z " style="fill: none; stroke: black; stroke-width: 1px;"/></g>

<g fill-rule="evenodd"><path d="M 778.48,233.422 L 778.48,84.1525 L 996.98,84.1525 L 996.98,233.423 L 778.48,233.422 z " style="fill: none; stroke: black; stroke-width: 1px;"/></g>

<g fill-rule="evenodd"><path d="M 778.48,601.192 L 778.48,451.923 L 996.98,451.923 L 996.98,601.193 L 778.48,601.192 z " style="fill: none; stroke: black; stroke-width: 1px;"/></g>

<g fill-rule="evenodd"><path d="M 410.71,451.922 L 559.98,451.922 L 559.98,670.423 L 410.71,670.423 L 410.71,451.922 z " style="fill: none; stroke: black; stroke-width: 1px;"/></g>

<g fill-rule="evenodd"><path d="M 410.71,14.9225 L 559.98,14.9225 L 559.98,233.422 L 410.71,233.422 L 410.71,14.9225 z " style="fill: none; stroke: black; stroke-width: 1px;"/></g>

<g fill-rule="evenodd"><path d="M 893.135,233.423 L 1042.4,233.423 L 1042.4,451.923 L 893.135,451.923 L 893.135,233.423 z " style="fill: none; stroke: black; stroke-width: 1px;"/></g>

<g fill-rule="evenodd"><path d="M 559.98,750.462 L 559.98,601.192 L 778.48,601.193 L 778.48,750.462 L 559.98,750.462 z " style="fill: none; stroke: black; stroke-width: 1px;"/></g>

<g fill-rule="evenodd"><path d="M 226.825,417.307 L 226.825,268.037 L 445.325,268.038 L 445.325,417.308 L 226.825,417.307 z " style="fill: none; stroke: black; stroke-width: 1px;"/></g>

<g fill-rule="evenodd"><path d="M 261.44,417.308 L 410.71,417.308 L 410.71,635.808 L 261.44,635.808 L 261.44,417.308 z " style="fill: none; stroke: black; stroke-width: 1px;"/></g>

<g fill-rule="evenodd"><path d="M 410.71,268.038 L 261.44,268.037 L 261.44,49.5375 L 410.71,49.5375 L 410.71,268.038 z " style="fill: none; stroke: black; stroke-width: 1px;"/></g>

<g fill-rule="evenodd"><path d="M 778.48,750.462 L 778.48,601.192 L 996.98,601.193 L 996.98,750.462 L 778.48,750.462 z " style="fill: none; stroke: black; stroke-width: 1px;"/></g>

<g fill-rule="evenodd"><path d="M 1042.4,233.423 L 1191.67,233.423 L 1191.67,451.923 L 1042.4,451.923 L 1042.4,233.423 z " style="fill: none; stroke: black; stroke-width: 1px;"/></g>

<g fill-rule="evenodd"><path d="M 1146.25,233.423 L 996.98,233.423 L 996.98,14.9225 L 1146.25,14.9225 L 1146.25,233.423 z " style="fill: none; stroke: black; stroke-width: 1px;"/></g>

<g fill-rule="evenodd"><path d="M 996.98,451.923 L 1146.25,451.923 L 1146.25,670.423 L 996.98,670.423 L 996.98,451.923 z " style="fill: none; stroke: black; stroke-width: 1px;"/></g>

<g fill-rule="evenodd"><path d="M 261.44,635.807 L 112.17,635.807 L 112.17,417.307 L 261.44,417.307 L 261.44,635.807 z " style="fill: none; stroke: black; stroke-width: 1px;"/></g>

<g fill-rule="evenodd"><path d="M 261.44,268.037 L 112.17,268.037 L 112.17,49.5375 L 261.44,49.5375 L 261.44,268.037 z " style="fill: none; stroke: black; stroke-width: 1px;"/></g>

<g fill-rule="evenodd"><path d="M 192.21,785.077 L 192.21,635.808 L 410.71,635.808 L 410.71,785.077 L 192.21,785.077 z " style="fill: none; stroke: black; stroke-width: 1px;"/></g>

<g fill-rule="evenodd"><path d="M 8.325,417.307 L 8.325,268.037 L 226.825,268.037 L 226.825,417.307 L 8.325,417.307 z " style="fill: none; stroke: black; stroke-width: 1px;"/></g>


</svg>
